<!--?xml version="1.0" standalone="no"?-->
              <svg id="sw-js-blob-svg" viewBox="0 0 100 100" xmlns="http://www.w3.org/2000/svg" version="1.1">
                    <defs> 
                        <linearGradient id="sw-gradient" x1="0" x2="1" y1="1" y2="0">
                            <stop id="stop1" stop-color="rgba(248, 117, 55, 1)" offset="0%"></stop>
                            <stop id="stop2" stop-color="rgba(251, 168, 31, 1)" offset="100%"></stop>
                        </linearGradient>
                    </defs>
                <path fill="url(#sw-gradient)" d="M6.2,-9.1C9.6,-8.7,15.1,-10.3,19.7,-9.1C24.2,-7.9,27.9,-4,26.3,-0.9C24.6,2.1,17.7,4.2,15.3,9.1C12.9,14.1,15,21.9,13.2,28.5C11.4,35.1,5.7,40.5,-1.1,42.3C-7.9,44.2,-15.7,42.5,-22.9,39C-30.1,35.5,-36.7,30.2,-38.5,23.4C-40.3,16.6,-37.4,8.3,-32.2,3C-27,-2.3,-19.5,-4.6,-15.9,-8.3C-12.3,-12,-12.6,-17.1,-10.5,-18.3C-8.5,-19.5,-4.3,-16.8,-1.4,-14.3C1.4,-11.8,2.7,-9.4,6.2,-9.1Z" width="100%" height="100%" transform="translate(50 50)" stroke-width="0" style="transition: all 0.3s ease 0s;"></path>
              </svg>