<svg xmlns="http://www.w3.org/2000/svg" version="1.1" xmlnsXlink="http://www.w3.org/1999/xlink" xmlns:svgjs="http://svgjs.dev/svgjs" viewBox="0 0 800 800"><defs><linearGradient x1="50%" y1="0%" x2="50%" y2="100%" id="ccchaos-grad"><stop stop-color="hsl(162, 100%, 58%)" stop-opacity="1" offset="0%"></stop><stop stop-color="hsl(270, 73%, 53%)" stop-opacity="1" offset="100%"></stop></linearGradient></defs><g stroke-width="2" stroke="url(#ccchaos-grad)" fill="none" stroke-linecap="round"><path d="M107.88 104.62Q116.41 106.83 124.93 109.29 133.46 111.92 141.99 114.63 150.51 117.32 159.04 119.88 176.09 124.1 193.14 127.22 210.19 128.01 227.24 127.28 244.29 124.2 261.34 120.01 269.87 117.45 278.39 114.77 286.92 112.06 295.44 109.43 303.97 106.95 312.5 104.73 329.55 101.59 346.6 99.8 363.65 100.51 380.7 102.69 389.23 104.54 397.75 106.73 406.28 109.19 414.8 111.81 423.33 114.52 431.85 117.21 440.38 119.78 448.9 122.14 465.96 125.69 483.01 127.98 500.06 127.79 517.11 126.11 525.63 124.46 534.16 122.44 542.69 120.11 551.21 117.56 559.74 114.88 568.26 112.18 576.79 109.53 585.31 107.05 602.36 103.12 619.42 100.37 636.47 100.02 653.52 101.19 657.17 109.83 661.61 118.47 666.72 127.11 672.35 135.74 678.36 144.38 684.58 153.02 690.83 161.65 696.96 170.29 702.78 178.93 708.14 187.56 712.9 196.2 716.92 204.84 720.1 213.48 722.35 222.11 723.31 239.39 721.2 256.66 718.41 265.3 714.74 273.93 710.29 282.57 705.17 291.21 699.53 299.85 693.51 308.48 687.3 317.12 681.04 325.76 674.92 334.39 669.11 343.03 663.75 351.67 659.01 360.3 655 368.94 651.84 377.58 648.89 394.85 649 412.13 650.84 420.76 653.64 429.4 657.32 438.04 661.79 446.67 666.92 455.31 672.57 463.95 678.59 472.58 684.81 481.22 691.06 489.86 697.18 498.5 702.99 507.13 708.33 515.77 713.06 524.41 717.06 533.04 720.2 541.68 722.41 550.32 723.3 567.59 721.11 584.87 718.29 593.5 714.59 602.14 710.11 610.78 704.97 619.41 699.31 628.05 693.28 636.69 679.5 648.44 663.07 650.38 654.19 650.49 645.32 651.89 636.45 654.51 627.58 658.27 618.71 663.03 609.84 668.61 600.96 674.83 592.09 681.44 583.22 688.22 574.35 694.92 565.48 701.3 556.61 707.12 547.73 712.19 538.86 716.31 529.99 719.34 521.12 721.16 512.25 721.72 503.38 720.99 494.5 718.99 485.63 715.81 476.76 711.56 467.89 706.38 459.02 700.46 450.15 694.03 441.27 687.3 432.4 680.53 423.53 673.96 414.66 667.82 405.79 662.33 396.91 657.7 388.04 654.09 379.17 651.63 370.3 650.4 361.43 650.46 352.56 651.8 343.68 654.38 334.81 658.09 325.94 662.81 317.07 668.37 308.2 674.56 299.33 681.16 290.45 687.94 281.58 694.65 272.71 701.04 263.84 706.9 254.97 712 246.1 716.16 237.22 719.23 228.35 721.11 219.48 721.72 210.61 721.04 201.74 719.1 192.86 715.97 183.99 711.75 175.12 706.61 166.25 700.72 157.38 694.3 148.51 687.59 139.63 680.81 130.76 674.22 118.04 660.94 115.37 645.11 116.5 636.39 117.57 627.67 118.53 618.96 119.38 610.24 120.51 592.8 121.11 575.37 120.76 557.93 119.84 540.5 119.09 531.78 118.2 523.06 117.19 514.35 116.1 505.63 114.95 496.91 113.77 488.19 112.6 479.48 111.47 470.76 110.41 462.04 109.44 453.32 107.99 435.89 107.03 418.45 107.01 401.02 107.57 383.58 108.16 374.87 108.92 366.15 109.81 357.43 110.82 348.71 111.91 340 113.06 331.28 114.24 322.56 115.41 313.84 116.54 305.13 117.6 296.41 118.57 287.69 119.41 278.97 120.53 261.54 121.11 244.1 120.74 226.67 119.82 209.23 119.06 200.52 118.16 191.8 117.15 183.08 116.06 174.36 114.91 165.65 113.73 156.93 112.56 148.21 111.43 139.49 110.37 130.78 109.41 122.06 108.57 113.34 107.88 104.62" stroke-dasharray="9 6" transform="rotate(0, 400, 400)" opacity="0.19"></path><path d="M119.32 118.19Q135.82 123.29 152.33 128.62 168.84 133.47 185.35 137.2 201.85 139.31 218.36 139.54 234.87 137.83 251.38 134.44 267.89 129.79 284.39 124.51 300.9 119.29 317.41 114.83 333.92 111.71 350.42 110.35 366.93 110.92 383.44 113.36 399.95 117.34 416.46 122.33 432.96 127.67 449.47 132.65 465.98 136.63 482.49 139.07 499 139.64 515.5 138.28 532.01 135.16 548.52 130.7 565.03 125.48 581.53 120.2 598.04 115.55 614.55 112.15 631.06 110.45 647.57 110.68 656.84 127.24 667.95 143.79 679.76 160.35 691.09 176.91 700.8 193.47 707.93 210.03 711.74 226.59 711.86 243.15 708.28 259.71 701.36 276.27 691.79 292.83 680.53 309.39 668.71 325.95 657.53 342.5 648.1 359.06 641.37 375.62 638.02 392.18 638.38 408.74 642.43 425.3 649.74 441.86 659.59 458.42 670.99 474.98 682.79 491.54 693.81 508.1 702.93 524.65 709.26 541.21 712.14 557.77 711.28 574.33 706.79 590.89 699.1 607.45 688.98 624.01 677.47 640.57 660.22 640.03 642.97 644.12 625.72 652.29 608.47 663.47 591.22 676.16 573.97 688.71 556.73 699.44 539.48 706.94 522.23 710.21 504.98 708.83 487.73 702.97 470.48 693.41 453.23 681.42 435.98 668.58 418.74 656.58 401.49 647.03 384.24 641.17 366.99 639.78 349.74 643.05 332.49 650.55 315.24 661.28 297.99 673.82 280.75 686.52 263.5 697.69 246.25 705.86 229 709.96 211.75 709.42 194.5 704.34 177.25 695.37 160 683.71 142.76 670.9 125.51 658.63 127.89 641.74 129.98 624.85 131.58 607.96 132.51 591.07 132.68 574.18 132.09 557.29 130.78 540.4 128.89 523.52 126.61 506.63 124.17 489.74 121.81 472.85 119.77 455.96 118.25 439.07 117.42 422.18 117.34 405.29 118.03 388.41 119.43 371.52 121.38 354.63 123.69 337.74 126.14 320.85 128.47 303.96 130.45 287.07 131.89 270.18 132.63 253.3 132.6 236.41 131.81 219.52 130.34 202.63 128.33 185.74 125.98 168.85 123.54 151.96 121.24 135.08 119.32 118.19" stroke-dasharray="5 9" transform="rotate(4.04, 400, 400)" opacity="0.25"></path><path d="M131.15 132.29Q147.13 137.55 163.11 142.62 179.09 146.88 195.08 149.82 211.06 151.06 227.04 150.47 243.02 148.12 259.01 144.28 274.99 139.44 290.97 134.17 306.95 129.13 322.94 124.92 338.92 122.07 354.9 120.91 370.88 121.59 386.87 124.04 402.85 127.93 418.83 132.82 434.81 138.09 450.8 143.1 466.78 147.25 482.76 150.03 498.74 151.09 514.73 150.31 530.71 147.79 546.69 143.82 562.67 138.91 578.66 133.63 594.64 128.65 610.62 124.56 626.6 121.87 642.59 120.9 652.54 136.78 663.56 152.66 674.61 168.54 684.69 184.42 692.84 200.3 698.33 216.18 700.63 232.06 699.54 247.95 695.16 263.83 687.89 279.71 678.4 295.59 667.58 311.47 656.43 327.35 645.98 343.23 637.2 359.11 630.9 375 627.67 390.88 627.8 406.76 631.28 422.64 637.8 438.52 646.74 454.4 657.28 470.28 668.44 486.17 679.19 502.05 688.53 517.93 695.6 533.81 699.74 549.69 700.57 565.57 698.01 581.45 692.3 597.33 683.97 613.22 673.78 629.1 657.05 631.34 640.31 637.57 623.57 647.02 606.84 658.54 590.1 670.72 573.36 682.09 556.63 691.25 539.89 697.08 523.15 698.88 506.42 696.42 489.68 690.01 472.94 680.42 456.21 668.83 439.47 656.65 422.73 645.37 406 636.35 389.26 630.71 372.52 629.13 355.79 631.8 339.05 638.4 322.31 648.12 305.58 659.78 288.84 671.95 272.11 683.15 255.37 692.02 238.63 697.46 221.9 698.82 205.16 695.94 188.42 689.16 171.69 679.31 154.95 667.59 138.21 655.43 140.52 639.08 142.41 622.73 143.7 606.38 144.28 590.04 144.09 573.69 143.15 557.34 141.55 540.99 139.44 524.64 137 508.3 134.47 491.95 132.09 475.6 130.06 459.25 128.59 442.9 127.8 426.56 127.77 410.21 128.5 393.86 129.93 377.51 131.92 361.16 134.28 344.81 136.81 328.47 139.26 312.12 141.41 295.77 143.05 279.42 144.05 263.07 144.29 246.73 143.77 230.38 142.53 214.03 140.68 197.68 138.4 181.33 135.9 164.99 133.4 148.64 131.15 132.29" stroke-dasharray="3 1" transform="rotate(8.08, 400, 400)" opacity="0.21"></path><path d="M143.37 146.78Q158.84 151.91 174.3 156.49 189.77 160.01 205.24 162.07 220.7 162.43 236.17 161.07 251.64 158.13 267.1 153.94 282.57 148.97 298.03 143.78 313.5 138.95 328.97 135.02 344.43 132.44 359.9 131.48 375.37 132.27 390.83 134.71 406.3 138.52 421.77 143.29 437.23 148.47 452.7 153.48 468.17 157.77 483.63 160.85 499.1 162.38 514.56 162.18 530.03 160.28 545.5 156.89 560.96 152.39 576.43 147.28 591.9 142.15 607.36 137.55 622.83 134.02 638.3 131.94 648.44 147.18 658.97 162.41 668.99 177.65 677.65 192.89 684.21 208.13 688.12 223.36 689.03 238.6 686.88 253.84 681.84 269.07 674.34 284.31 665.03 299.55 654.69 314.78 644.21 330.02 634.48 345.26 626.32 360.5 620.44 375.73 617.32 390.97 617.24 406.21 620.21 421.44 625.97 436.68 634.03 451.92 643.7 467.15 654.16 482.39 664.53 497.63 673.91 512.87 681.51 528.1 686.69 543.34 688.99 558.58 688.24 573.81 684.48 589.05 678.04 604.29 669.47 619.53 653.26 624.15 637.06 632 620.86 642.21 604.66 653.63 588.46 664.98 572.26 674.98 556.06 682.52 539.86 686.75 523.66 687.19 507.46 683.8 491.26 676.95 475.06 667.42 458.86 656.27 442.66 644.75 426.46 634.16 410.26 625.68 394.06 620.26 377.86 618.51 361.66 620.63 345.46 626.38 329.26 635.11 313.06 645.85 296.86 657.38 280.66 668.43 264.46 677.75 248.26 684.29 232.06 687.32 215.86 686.5 199.66 681.93 183.46 674.11 167.26 663.93 151.06 652.51 153.17 636.71 154.76 620.91 155.68 605.1 155.87 589.3 155.3 573.49 154.03 557.69 152.15 541.88 149.84 526.08 147.28 510.28 144.7 494.47 142.32 478.67 140.33 462.86 138.91 447.06 138.18 431.26 138.2 415.45 138.97 399.65 140.42 383.84 142.43 368.04 144.83 352.23 147.41 336.43 149.96 320.63 152.26 304.82 154.11 289.02 155.35 273.21 155.88 257.41 155.66 241.6 154.69 225.8 153.07 210 150.94 194.19 148.47 178.39 145.87 162.58 143.37 146.78" stroke-dasharray="2 1" transform="rotate(12.12, 400, 400)" opacity="0.74"></path><path d="M155.96 161.47Q170.91 166.21 185.87 170.1 200.82 172.75 215.77 173.89 230.72 173.39 245.67 171.31 260.62 167.87 275.57 163.41 290.52 158.4 305.47 153.34 320.42 148.76 335.38 145.13 350.33 142.82 365.28 142.07 380.23 142.95 395.18 145.38 410.13 149.1 425.08 153.74 440.03 158.81 454.98 163.8 469.94 168.19 484.89 171.54 499.84 173.49 514.79 173.86 529.74 172.59 544.69 169.83 559.64 165.85 574.59 161.07 589.54 155.97 604.49 151.07 619.45 146.89 634.4 143.85 644.28 158.47 653.99 173.09 662.76 187.72 669.91 202.34 674.89 216.96 677.3 231.58 676.97 246.2 673.9 260.82 668.35 275.44 660.75 290.06 651.68 304.69 641.86 319.31 632.05 333.93 623.01 348.55 615.46 363.17 609.97 377.79 606.98 392.41 606.72 407.03 609.2 421.66 614.25 436.28 621.45 450.9 630.26 465.52 639.98 480.14 649.86 494.76 659.13 509.38 667.06 524.01 673.03 538.63 676.59 553.25 677.45 567.87 675.55 582.49 671.03 597.11 664.25 611.73 648.62 618.24 632.98 627.19 617.35 637.65 601.71 648.57 586.08 658.8 570.44 667.32 554.81 673.23 539.18 675.93 523.54 675.15 507.91 670.97 492.27 663.81 476.64 654.42 461 643.74 445.37 632.89 429.73 622.97 414.1 615.01 398.46 609.81 382.83 607.92 367.19 609.53 351.56 614.47 335.93 622.24 320.29 632.04 304.66 642.85 289.02 653.58 273.39 663.12 257.75 670.49 242.12 674.94 226.48 676 210.85 673.57 195.21 667.9 179.58 659.57 163.95 649.43 165.76 634.19 166.97 618.94 167.47 603.69 167.24 588.44 166.29 573.19 164.69 557.94 162.57 542.69 160.1 527.44 157.46 512.2 154.86 496.95 152.5 481.7 150.58 466.45 149.23 451.2 148.56 435.95 148.63 420.7 149.43 405.45 150.9 390.2 152.92 374.96 155.34 359.71 157.96 344.46 160.58 329.21 163.01 313.96 165.04 298.71 166.52 283.46 167.34 268.21 167.43 252.97 166.79 237.72 165.46 222.47 163.55 207.22 161.2 191.97 158.61 176.72 155.96 161.47" stroke-dasharray="6 7" transform="rotate(16.16, 400, 400)" opacity="0.74"></path><path d="M168.87 176.16Q183.3 180.27 197.73 183.31 212.16 185.02 226.59 185.23 241.02 183.92 255.44 181.21 269.87 177.36 284.3 172.72 298.73 167.74 313.16 162.87 327.58 158.58 342.01 155.26 356.44 153.23 370.87 152.67 385.3 153.65 399.73 156.06 414.15 159.68 428.58 164.17 443.01 169.12 457.44 174.05 471.87 178.51 486.3 182.08 500.72 184.43 515.15 185.33 529.58 184.7 544.01 182.6 558.44 179.23 572.86 174.9 587.29 170.01 601.72 165.04 616.15 160.43 630.58 156.62 639.82 170.65 648.43 184.68 655.8 198.71 661.41 212.73 664.86 226.76 665.9 240.79 664.47 254.82 660.65 268.84 654.73 282.87 647.12 296.9 638.36 310.93 629.08 324.95 619.94 338.98 611.58 353.01 604.61 367.04 599.5 381.06 596.64 395.09 596.21 409.12 598.26 423.15 602.64 437.17 609.02 451.2 616.97 465.23 625.92 479.26 635.23 493.28 644.23 507.31 652.3 521.34 658.85 535.37 663.42 549.39 665.69 563.42 665.49 577.45 662.84 591.48 657.93 605.5 642.9 613.34 627.86 622.84 612.82 633.09 597.79 643.15 582.75 652.08 567.72 659.02 552.68 663.35 537.64 664.64 522.61 662.79 507.57 657.96 492.53 650.6 477.5 641.41 462.46 631.24 447.43 621.05 432.39 611.79 417.35 604.33 402.32 599.37 387.28 597.36 372.25 598.51 357.21 602.69 342.17 609.53 327.14 618.37 312.1 628.4 297.06 638.67 282.03 648.22 266.99 656.16 251.96 661.74 236.92 664.45 221.88 664.02 206.85 660.5 191.81 654.22 176.77 645.76 178.19 631.09 178.96 616.41 179.02 601.74 178.36 587.06 177.04 572.39 175.15 557.71 172.82 543.04 170.22 528.36 167.53 513.69 164.95 499.01 162.65 484.34 160.8 469.66 159.54 454.99 158.95 440.31 159.07 425.64 159.9 410.96 161.37 396.29 163.39 381.61 165.8 366.94 168.44 352.26 171.12 337.59 173.65 322.91 175.85 308.24 177.56 293.56 178.66 278.89 179.08 264.21 178.78 249.54 177.78 234.86 176.16 220.19 174.03 205.51 171.54 190.84 168.87 176.16" stroke-dasharray="5 4" transform="rotate(20.200000000000003, 400, 400)" opacity="0.19"></path><path d="M182.03 190.63Q195.92 193.91 209.81 196.01 223.7 196.74 237.59 196.06 251.48 194 265.37 190.76 279.27 186.6 293.16 181.88 307.05 177 320.94 172.38 334.83 168.4 348.72 165.41 362.61 163.65 376.5 163.29 390.39 164.34 404.28 166.73 418.17 170.24 432.06 174.58 445.96 179.38 459.85 184.24 473.74 188.73 487.63 192.48 501.52 195.17 515.41 196.57 529.3 196.56 543.19 195.15 557.08 192.44 570.97 188.68 584.86 184.18 598.75 179.32 612.65 174.53 626.54 170.19 634.81 183.64 642.13 197.09 648.03 210.54 652.11 223.99 654.13 237.43 653.94 250.88 651.57 264.33 647.15 277.78 640.99 291.23 633.47 304.68 625.09 318.12 616.37 331.57 607.89 345.02 600.19 358.47 593.77 371.92 589.04 385.37 586.3 398.81 585.74 412.26 587.38 425.71 591.13 439.16 596.74 452.61 603.85 466.05 612 479.5 620.67 492.95 629.29 506.4 637.32 519.85 644.22 533.3 649.57 546.74 653 560.19 654.31 573.64 653.41 587.09 650.35 600.54 635.94 609.14 621.54 618.66 607.14 628.3 592.73 637.24 578.33 644.7 563.93 650.07 549.52 652.88 535.12 652.9 520.72 650.12 506.31 644.78 491.91 637.34 477.5 628.42 463.1 618.78 448.7 609.25 434.29 600.63 419.89 593.66 405.49 588.92 391.08 586.83 376.68 587.55 362.28 591.03 347.87 596.98 333.47 604.87 319.07 614.06 304.66 623.74 290.26 633.11 275.86 641.37 261.45 647.8 247.05 651.88 232.64 653.24 218.24 651.78 203.84 647.62 189.43 641.11 190.39 627.04 190.67 612.96 190.26 598.88 189.19 584.8 187.53 570.73 185.38 556.65 182.89 542.57 180.2 528.49 177.51 514.42 174.97 500.34 172.76 486.26 171.02 472.18 169.85 458.11 169.34 444.03 169.52 429.95 170.37 415.87 171.84 401.8 173.84 387.72 176.23 373.64 178.87 359.56 181.58 345.49 184.19 331.41 186.52 317.33 188.44 303.25 189.81 289.18 190.55 275.1 190.61 261.02 189.98 246.94 188.71 232.87 186.88 218.79 184.6 204.71 182.03 190.63" stroke-dasharray="9 0" transform="rotate(24.24, 400, 400)" opacity="0.23"></path><path d="M195.33 204.67Q208.67 206.99 222 208.08 235.33 207.86 248.67 206.35 262 203.66 275.33 199.99 288.67 195.64 302 190.93 315.33 186.22 328.66 181.88 342 178.24 355.33 175.58 368.66 174.1 382 173.92 395.33 175.05 408.66 177.4 422 180.8 435.33 184.98 448.66 189.62 461.99 194.36 475.33 198.85 488.66 202.74 501.99 205.72 515.33 207.57 528.66 208.16 541.99 207.42 555.33 205.42 568.66 202.32 581.99 198.35 595.32 193.81 608.66 189.06 621.99 184.45 629.07 197.33 634.98 210.2 639.38 223.08 642 235.96 642.71 248.83 641.45 261.71 638.3 274.58 633.45 287.46 627.17 300.33 619.84 313.21 611.87 326.09 603.73 338.96 595.9 351.84 588.84 364.71 582.95 377.59 578.57 390.47 575.97 403.34 575.28 416.22 576.57 429.09 579.74 441.97 584.61 454.84 590.91 467.72 598.25 480.6 606.23 493.47 614.36 506.35 622.18 519.22 629.24 532.1 635.11 544.97 639.47 557.85 642.05 570.73 642.7 583.6 641.39 596.48 627.66 605.29 613.92 614.38 600.18 623.06 586.45 630.66 572.71 636.6 558.97 640.42 545.24 641.83 531.5 640.72 517.76 637.17 504.03 631.46 490.29 624.03 476.55 615.44 462.82 606.36 449.08 597.48 435.34 589.48 421.6 582.99 407.87 578.48 394.13 576.32 380.39 576.67 366.66 579.5 352.92 584.59 339.18 591.55 325.45 599.86 311.71 608.86 297.97 617.88 284.24 626.21 270.5 633.22 256.76 638.37 243.03 641.27 229.29 641.69 215.55 639.6 201.82 635.17 202.25 621.71 202.03 608.26 201.17 594.81 199.72 581.35 197.75 567.9 195.4 554.45 192.79 540.99 190.07 527.54 187.41 514.09 184.95 500.64 182.85 487.18 181.22 473.73 180.16 460.28 179.74 446.82 179.96 433.37 180.83 419.92 182.3 406.47 184.26 393.01 186.62 379.56 189.24 366.11 191.95 352.65 194.62 339.2 197.07 325.75 199.16 312.3 200.78 298.84 201.83 285.39 202.25 271.94 202.02 258.48 201.14 245.03 199.67 231.58 197.7 218.13 195.33 204.67" stroke-dasharray="9 10" transform="rotate(28.28, 400, 400)" opacity="0.76"></path><path d="M208.68 218.08Q221.43 219.37 234.18 219.46 246.93 218.35 259.68 216.11 272.43 212.89 285.18 208.93 297.93 204.49 310.68 199.87 323.43 195.4 336.18 191.39 348.93 188.11 361.68 185.78 374.43 184.58 387.18 184.57 399.93 185.76 412.68 188.07 425.43 191.35 438.18 195.35 450.93 199.82 463.68 204.43 476.43 208.88 489.18 212.85 501.93 216.07 514.68 218.33 527.43 219.45 540.18 219.38 552.93 218.1 565.68 215.72 578.44 212.39 591.19 208.34 603.94 203.86 616.69 199.25 622.41 211.55 626.87 223.85 629.81 236.15 631.09 248.46 630.64 260.76 628.48 273.06 624.73 285.36 619.58 297.67 613.3 309.97 606.22 322.27 598.71 334.57 591.17 346.88 583.98 359.18 577.52 371.48 572.14 383.78 568.1 396.09 565.63 408.39 564.85 420.69 565.81 432.99 568.45 445.29 572.63 457.6 578.14 469.9 584.69 482.2 591.93 494.5 599.49 506.81 606.97 519.11 613.98 531.41 620.16 543.71 625.18 556.02 628.78 568.32 630.76 580.62 631.04 592.92 618 601.43 604.96 609.71 591.92 617.17 578.88 623.32 565.84 627.72 552.81 630.07 539.77 630.2 526.73 628.12 513.69 623.97 500.65 618.02 487.62 610.69 474.58 602.49 461.54 593.98 448.5 585.74 435.46 578.35 422.43 572.31 409.39 568.05 396.35 565.84 383.31 565.86 370.27 568.09 357.24 572.38 344.2 578.43 331.16 585.84 318.12 594.08 305.08 602.59 292.04 610.79 279.01 618.1 265.97 624.03 252.93 628.16 239.89 630.22 226.85 630.05 213.82 627.67 213.72 614.87 213.01 602.07 211.72 589.27 209.93 576.47 207.72 563.68 205.21 550.88 202.53 538.08 199.83 525.28 197.23 512.48 194.89 499.68 192.92 486.88 191.42 474.08 190.48 461.28 190.14 448.48 190.42 435.68 191.3 422.88 192.74 410.08 194.67 397.28 196.98 384.48 199.55 371.68 202.25 358.88 204.94 346.08 207.47 333.28 209.72 320.48 211.56 307.68 212.9 294.88 213.67 282.08 213.83 269.28 213.38 256.48 212.32 243.68 210.73 230.88 208.68 218.08" stroke-dasharray="6 5" transform="rotate(32.32, 400, 400)" opacity="0.43"></path><path d="M221.95 230.69Q234.09 230.94 246.23 230.09 258.37 228.18 270.51 225.34 282.65 221.74 294.79 217.61 306.93 213.19 319.07 208.75 331.2 204.58 343.34 200.93 355.48 198.02 367.62 196.03 379.76 195.08 391.9 195.24 404.04 196.48 416.18 198.75 428.32 201.89 440.46 205.71 452.6 209.99 464.74 214.44 476.88 218.81 489.02 222.82 501.16 226.23 513.3 228.82 525.43 230.44 537.57 230.98 549.71 230.42 561.85 228.79 573.99 226.18 586.13 222.77 598.27 218.75 610.41 214.38 614.72 226.1 617.74 237.82 619.32 249.54 619.39 261.26 617.95 272.98 615.07 284.71 610.88 296.43 605.57 308.15 599.4 319.87 592.64 331.59 585.63 343.31 578.67 355.03 572.11 366.75 566.24 378.48 561.34 390.2 557.64 401.92 555.3 413.64 554.45 425.36 555.11 437.08 557.26 448.8 560.8 460.52 565.56 472.25 571.32 483.97 577.82 495.69 584.74 507.41 591.76 519.13 598.57 530.85 604.83 542.57 610.26 554.29 614.61 566.02 617.67 577.74 619.29 589.46 606.98 597.24 594.67 604.39 582.36 610.47 570.05 615.1 557.74 618.01 545.43 619.01 533.12 618.04 520.81 615.16 508.49 610.54 496.18 604.48 483.87 597.34 471.56 589.57 459.25 581.64 446.94 574.04 434.63 567.23 422.32 561.64 410.01 557.61 397.7 555.39 385.39 555.11 373.08 556.79 360.76 560.34 348.45 565.52 336.14 572.02 323.83 579.44 311.52 587.33 299.21 595.2 286.9 602.56 274.59 608.97 262.28 614.02 249.97 617.41 237.66 618.93 225.35 618.49 224.72 606.37 223.55 594.25 221.89 582.13 219.82 570.01 217.42 557.89 214.82 545.78 212.13 533.66 209.48 521.54 207 509.42 204.8 497.3 202.98 485.18 201.62 473.06 200.8 460.94 200.55 448.83 200.87 436.71 201.77 424.59 203.18 412.47 205.06 400.35 207.3 388.23 209.81 376.11 212.47 364 215.15 351.88 217.74 339.76 220.1 327.64 222.13 315.52 223.73 303.4 224.83 291.28 225.38 279.17 225.36 267.05 224.75 254.93 223.6 242.81 221.95 230.69" stroke-dasharray="4 0" transform="rotate(36.36, 400, 400)" opacity="0.95"></path><path d="M235.01 242.37Q246.51 241.64 258.01 239.95 269.51 237.39 281.01 234.09 292.51 230.25 304.01 226.07 315.51 221.77 327.01 217.6 338.51 213.77 350.01 210.5 361.51 207.97 373.01 206.31 384.51 205.61 396.01 205.92 407.51 207.21 419.01 209.42 430.51 212.42 442.01 216.06 453.51 220.12 465.01 224.4 476.51 228.66 488.01 232.66 499.5 236.19 511 239.05 522.5 241.09 534 242.2 545.5 242.32 557 241.44 568.5 239.61 580 236.92 598.7 237.14 607.56 251.88 607.92 263.01 606.96 274.13 604.71 285.26 601.28 296.38 596.81 307.51 591.47 318.64 585.49 329.76 579.12 340.89 572.62 352.02 566.26 363.14 560.31 374.27 555 385.39 550.56 396.52 547.17 407.65 544.97 418.77 544.06 429.9 544.47 441.03 546.18 452.15 549.12 463.28 553.18 474.4 558.18 485.53 563.91 496.66 570.15 507.78 576.62 518.91 583.07 530.04 589.23 541.16 594.84 552.29 599.68 563.41 603.53 574.54 606.24 585.67 594.68 592.38 583.12 598.2 571.56 602.81 560 605.96 548.44 607.47 536.88 607.27 525.32 605.36 513.77 601.85 502.21 596.93 490.65 590.87 479.09 584 467.53 576.69 455.97 569.35 444.41 562.36 432.85 556.12 421.29 550.97 409.73 547.18 398.17 544.96 386.61 544.43 375.05 545.62 363.49 548.47 351.93 552.82 340.37 558.44 328.81 565.01 317.25 572.18 305.69 579.56 294.13 586.74 282.57 593.34 271.01 598.99 259.46 603.39 241.56 601.22 233.66 584.73 231.69 573.31 229.4 561.9 226.88 550.49 224.25 539.08 221.61 527.67 219.06 516.25 216.72 504.84 214.68 493.43 213.03 482.02 211.83 470.61 211.13 459.19 210.97 447.78 211.34 436.37 212.23 424.96 213.62 413.55 215.43 402.14 217.59 390.72 220.02 379.31 222.62 367.9 225.27 356.49 227.87 345.08 230.31 333.66 232.49 322.25 234.31 310.84 235.71 299.43 236.63 288.02 237.02 276.6 236.87 265.19 236.2 253.78 235.01 242.37" stroke-dasharray="6 1" transform="rotate(40.400000000000006, 400, 400)" opacity="0.16"></path><path d="M247.75 253.03Q258.58 251.44 269.41 249.06 280.24 246 291.07 242.42 301.91 238.48 312.74 234.37 323.57 230.29 334.4 226.44 345.23 223 356.06 220.13 366.89 217.98 377.72 216.64 388.55 216.18 399.39 216.63 410.22 217.95 421.05 220.09 431.88 222.95 442.71 226.39 453.54 230.23 464.37 234.31 475.2 238.42 486.04 242.36 496.87 245.95 507.7 249.02 518.53 251.41 529.36 253.02 540.19 253.76 551.02 253.6 561.85 252.55 572.68 250.66 589.71 251.64 596.36 265.78 595.66 276.29 593.85 286.8 590.98 297.31 587.18 307.83 582.57 318.34 577.31 328.85 571.61 339.37 565.67 349.88 559.71 360.39 553.93 370.91 548.56 381.42 543.79 391.93 539.79 402.44 536.7 412.96 534.65 423.47 533.69 433.98 533.88 444.5 535.19 455.01 537.59 465.52 540.99 476.04 545.26 486.55 550.24 497.06 555.77 507.57 561.62 518.09 567.61 528.6 573.49 539.11 579.07 549.63 584.13 560.14 584.87 578.62 570.44 590.96 559.65 594.1 548.86 595.84 538.07 596.1 527.28 594.87 516.49 592.21 505.7 588.24 494.91 583.16 484.12 577.21 473.33 570.67 462.54 563.86 451.75 557.1 440.96 550.72 430.17 545.03 419.38 540.29 408.59 536.74 397.8 534.54 387.01 533.81 376.22 534.57 365.43 536.78 354.64 540.35 343.85 545.11 333.06 550.81 322.27 557.2 311.48 563.96 300.69 570.77 289.9 577.3 279.11 583.24 268.32 588.31 251.37 588.24 243.31 573.53 241.11 562.85 238.69 552.17 236.13 541.48 233.53 530.8 230.98 520.12 228.58 509.43 226.42 498.75 224.56 488.07 223.09 477.38 222.04 466.7 221.47 456.02 221.39 445.33 221.81 434.65 222.7 423.97 224.04 413.28 225.78 402.6 227.85 391.92 230.19 381.23 232.7 370.55 235.29 359.87 237.87 349.18 240.35 338.5 242.63 327.82 244.63 317.13 246.29 306.45 247.53 295.77 248.32 285.08 248.62 274.4 248.43 263.72 247.75 253.03" stroke-dasharray="8 10" transform="rotate(44.44, 400, 400)" opacity="0.82"></path><path d="M260.04 262.66Q270.18 260.37 280.31 257.47 290.45 254.09 300.59 250.38 310.72 246.48 320.86 242.56 330.99 238.79 341.13 235.31 351.27 232.29 361.4 229.83 371.54 228.05 381.67 227.02 391.81 226.79 401.95 227.35 412.08 228.7 422.22 230.77 432.35 233.47 442.49 236.7 452.63 240.32 462.76 244.17 472.9 248.1 483.03 251.94 493.17 255.54 503.31 258.73 513.44 261.39 523.58 263.41 533.71 264.7 543.85 265.21 553.99 264.92 564.12 263.83 579.51 265.69 584.16 279.26 582.6 289.14 580.13 299.02 576.84 308.9 572.82 318.78 568.21 328.65 563.14 338.53 557.79 348.41 552.31 358.29 546.89 368.17 541.69 378.05 536.88 387.93 532.62 397.8 529.03 407.68 526.24 417.56 524.32 427.44 523.34 437.32 523.34 447.2 524.3 457.08 526.21 466.95 529 476.83 532.58 486.71 536.83 496.59 541.64 506.47 546.83 516.35 552.25 526.23 557.73 536.11 563.08 545.98 568.15 555.86 569.78 572.68 556.78 582.55 546.77 584.29 536.77 584.76 526.76 583.94 516.75 581.88 506.74 578.65 496.73 574.38 486.72 569.27 476.72 563.52 466.71 557.37 456.7 551.08 446.69 544.91 436.68 539.12 426.67 533.95 416.67 529.62 406.66 526.31 396.65 524.15 386.64 523.25 376.63 523.63 366.62 525.27 356.62 528.12 346.61 532.05 336.6 536.89 326.59 542.46 316.58 548.5 306.57 554.77 296.57 561.01 286.56 566.96 276.55 572.36 260.61 573.87 252.54 560.8 250.19 550.86 247.72 540.93 245.19 530.99 242.68 521.05 240.28 511.11 238.07 501.17 236.1 491.24 234.44 481.3 233.16 471.36 232.27 461.42 231.83 451.48 231.83 441.55 232.28 431.61 233.17 421.67 234.46 411.73 236.12 401.79 238.09 391.86 240.31 381.92 242.71 371.98 245.22 362.04 247.75 352.1 250.22 342.17 252.56 332.23 254.69 322.29 256.55 312.35 258.07 302.41 259.21 292.48 259.93 282.54 260.21 272.6 260.04 262.66" stroke-dasharray="0 2" transform="rotate(48.48, 400, 400)" opacity="0.78"></path><path d="M271.79 271.29Q281.21 268.48 290.63 265.27 300.04 261.75 309.46 258.06 318.88 254.34 328.3 250.71 337.71 247.31 347.13 244.25 356.55 241.66 365.97 239.62 375.38 238.2 384.8 237.46 394.22 237.43 403.64 238.1 413.05 239.46 422.47 241.44 431.89 243.99 441.31 247 450.72 250.38 460.14 253.99 469.56 257.71 478.97 261.41 488.39 264.95 497.81 268.2 507.23 271.05 516.64 273.38 526.06 275.13 535.48 276.23 544.9 276.63 554.31 276.32 568.12 279.1 571.05 292.1 568.83 301.32 565.91 310.55 562.36 319.77 558.28 328.99 553.78 338.21 548.99 347.43 544.03 356.65 539.05 365.88 534.17 375.1 529.53 384.32 525.27 393.54 521.48 402.76 518.29 411.99 515.77 421.21 513.99 430.43 513.01 439.65 512.85 448.87 513.51 458.1 514.97 467.32 517.21 476.54 520.14 485.76 523.7 494.98 527.79 504.2 532.3 513.43 537.09 522.65 542.05 531.87 547.04 541.09 551.91 550.31 554.06 565.43 542.36 572.88 533.14 573.35 523.91 572.73 514.69 571.04 505.47 568.34 496.25 564.72 487.03 560.32 477.81 555.29 468.59 549.82 459.37 544.11 450.15 538.35 440.93 532.76 431.71 527.55 422.49 522.88 413.26 518.95 404.04 515.88 394.82 513.78 385.6 512.75 376.38 512.8 367.16 513.94 357.94 516.12 348.72 519.28 339.5 523.29 330.28 528.01 321.06 533.28 311.84 538.89 302.62 544.65 293.39 550.35 284.17 555.78 269.3 558.33 261.37 546.73 258.98 537.55 256.53 528.37 254.1 519.19 251.74 510 249.53 500.82 247.53 491.64 245.78 482.46 244.34 473.28 243.24 464.1 242.52 454.92 242.2 445.73 242.28 436.55 242.76 427.37 243.63 418.19 244.87 409.01 246.44 399.83 248.3 390.65 250.39 381.46 252.66 372.28 255.06 363.1 257.5 353.92 259.94 344.74 262.29 335.56 264.49 326.38 266.5 317.19 268.24 308.01 269.67 298.83 270.76 289.65 271.48 280.47 271.79 271.29" stroke-dasharray="9 3" transform="rotate(52.52, 400, 400)" opacity="0.69"></path><path d="M282.92 279Q300.28 272.57 317.64 265.57 335 258.88 352.36 253.29 369.71 249.5 387.07 247.97 404.43 248.87 421.79 252.11 439.15 257.29 456.51 263.78 473.87 270.77 491.23 277.43 508.59 282.94 525.95 286.63 543.31 288.04 560.67 287 557.13 304.09 551.27 321.18 543.62 338.26 534.89 355.35 525.9 372.44 517.47 389.52 510.38 406.61 505.3 423.7 502.69 440.78 502.8 457.87 505.61 474.96 510.87 492.04 518.08 509.13 526.58 526.22 535.58 543.3 544.25 560.39 527.39 561.93 510.52 559.82 493.65 554.32 476.78 546.09 459.92 536.15 443.05 525.69 426.18 516.01 409.31 508.27 392.45 503.43 375.58 502.08 358.71 504.37 341.85 510.03 324.98 518.37 308.11 528.38 291.24 538.82 274.38 548.43 269.86 531.6 265.18 514.76 260.75 497.92 257 481.08 254.26 464.24 252.8 447.4 252.74 430.56 254.1 413.72 256.75 396.88 260.43 380.04 264.82 363.2 269.5 346.36 274.04 329.52 278.03 312.68 281.08 295.84 282.92 279" stroke-dasharray="10 7" transform="rotate(56.56, 400, 400)" opacity="0.52"></path><path d="M293.37 285.95Q309.22 279.51 325.08 273.01 340.94 267.13 356.79 262.47 372.65 259.5 388.5 258.53 404.36 259.67 420.21 262.79 436.07 267.57 451.92 273.53 467.78 280.04 483.64 286.45 499.49 292.1 515.35 296.4 531.2 298.91 547.06 299.38 542.52 315.07 536.31 330.76 528.91 346.45 520.88 362.14 512.87 377.83 505.49 393.52 499.32 409.2 494.84 424.89 492.39 440.58 492.18 456.27 494.21 471.96 498.33 487.65 504.22 503.34 511.41 519.03 515.73 542.23 496.81 546.11 481.5 539.91 466.2 531.76 450.89 522.51 435.59 513.1 420.28 504.5 404.98 497.6 389.67 493.1 374.37 491.46 359.06 492.85 343.76 497.14 328.45 503.87 313.15 512.36 297.84 521.74 282.54 531.04 278.09 515.72 273.71 500.4 269.74 485.09 266.49 469.77 264.22 454.45 263.1 439.13 263.22 423.82 264.57 408.5 267.04 393.18 270.44 377.86 274.51 362.54 278.93 347.23 283.36 331.91 287.44 316.59 290.87 301.27 293.37 285.95" stroke-dasharray="6 5" transform="rotate(60.599999999999994, 400, 400)" opacity="0.25"></path><path d="M303.12 292.35Q317.45 286.27 331.79 280.5 346.12 275.54 360.46 271.81 374.79 269.63 389.13 269.17 403.46 270.49 417.8 273.46 432.13 277.84 446.47 283.25 460.8 289.23 475.14 295.28 489.47 300.88 503.81 305.56 518.14 308.91 532.48 310.65 527.37 324.91 521.15 339.17 514.21 353.43 507 367.69 499.98 381.95 493.6 396.21 488.29 410.47 484.37 424.73 482.1 438.99 481.64 453.25 483 467.52 486.1 481.78 490.75 496.04 496.63 510.3 500.08 530.47 483.02 531.71 469.26 525.18 455.5 517.37 441.73 508.93 427.97 500.58 414.2 493.03 400.44 486.93 386.67 482.78 372.91 480.94 359.14 481.58 345.38 484.63 331.61 489.83 317.85 496.75 304.09 504.79 290.32 513.28 286.13 499.47 282.19 485.66 278.76 471.85 276.05 458.05 274.24 444.24 273.44 430.43 273.71 416.62 275.03 402.81 277.32 389.01 280.43 375.2 284.15 361.39 288.24 347.58 292.46 333.77 296.51 319.96 300.14 306.16 303.12 292.35" stroke-dasharray="10 5" transform="rotate(64.64, 400, 400)" opacity="0.90"></path><path d="M312.18 298.42Q324.99 293.01 337.8 288.15 350.61 284.18 363.41 281.36 376.22 279.9 389.03 279.89 401.84 281.33 414.65 284.13 427.45 288.1 440.26 292.95 453.07 298.36 465.88 303.95 478.69 309.33 491.49 314.14 504.3 318.05 517.11 320.78 511.84 333.58 505.9 346.39 499.6 359.19 493.26 372 487.23 384.81 481.81 397.61 477.29 410.42 473.9 423.23 471.83 436.03 471.18 448.84 471.98 461.64 474.19 474.45 477.7 487.26 482.33 500.06 484.74 517.43 469.4 516.73 457.14 510.24 444.89 502.97 432.64 495.44 420.38 488.14 408.13 481.6 395.88 476.25 383.62 472.48 371.37 470.53 359.12 470.54 346.86 472.51 334.61 476.31 322.36 481.67 302.1 485.72 290.7 470.89 287.85 458.57 285.68 446.25 284.31 433.93 283.82 421.61 284.22 409.29 285.5 396.98 287.59 384.66 290.38 372.34 293.73 360.02 297.46 347.7 301.37 335.38 305.26 323.06 308.93 310.74 312.18 298.42" stroke-dasharray="1 1" transform="rotate(68.68, 400, 400)" opacity="0.23"></path><path d="M320.6 304.45Q331.88 299.94 343.17 296.08 354.46 293.09 365.74 291.14 377.03 290.32 388.32 290.68 399.6 292.2 410.89 294.81 422.17 298.35 433.46 302.63 444.75 307.43 456.03 312.47 467.32 317.49 478.61 322.21 492.99 333.73 490.66 352.42 485.12 363.76 479.7 375.1 474.63 386.44 470.11 397.77 466.32 409.11 463.44 420.45 461.56 431.79 460.79 443.12 461.13 454.46 462.59 465.8 465.1 477.14 468.55 488.47 457.62 499.22 434.59 488.62 423.82 482.04 413.04 475.79 402.26 470.2 391.49 465.58 380.71 462.18 369.93 460.2 359.16 459.72 348.38 460.79 337.61 463.35 326.83 467.24 309.07 469.78 299.31 456.44 297.05 445.59 295.42 434.73 294.46 423.87 294.24 413.02 294.75 402.16 295.97 391.3 297.85 380.45 300.32 369.59 303.27 358.73 306.58 347.88 310.12 337.02 313.73 326.16 317.28 315.31 320.6 304.45" stroke-dasharray="10 0" transform="rotate(72.72, 400, 400)" opacity="0.08"></path><path d="M328.45 310.71Q338.23 307.23 348.01 304.4 357.79 302.36 367.57 301.17 377.34 300.9 387.12 301.55 396.9 303.1 406.68 305.48 416.46 308.59 426.24 312.31 436.02 316.47 445.8 320.9 455.57 325.42 465.35 329.84 477.7 340.74 475.54 357.37 470.84 367.24 466.35 377.1 462.19 386.97 458.49 396.83 455.39 406.69 452.97 416.56 451.31 426.42 450.46 436.29 450.46 446.15 451.3 456.01 452.95 465.88 455.36 475.74 444.88 484.14 424.8 474.35 415.46 468.76 406.12 463.51 396.79 458.83 387.45 454.91 378.11 451.91 368.78 449.95 359.44 449.13 350.1 449.47 340.77 450.97 331.43 453.55 316.16 454.59 308.08 442.65 306.42 433.23 305.28 423.8 304.71 414.38 304.71 404.95 305.29 395.53 306.43 386.1 308.1 376.68 310.24 367.25 312.79 357.83 315.65 348.41 318.76 338.98 321.99 329.56 325.26 320.13 328.45 310.71" stroke-dasharray="1 3" transform="rotate(76.76, 400, 400)" opacity="0.13"></path><path d="M335.85 317.48Q352.44 313.22 369.02 311.49 385.61 312.51 402.2 316.15 418.78 321.97 435.37 329.26 451.96 337.12 468.54 344.6 460.63 361.39 453.21 378.18 446.97 394.97 442.5 411.76 440.21 428.55 440.3 445.35 437.15 465.97 415.66 460.21 399.8 451.33 383.93 444.23 368.06 439.79 352.2 438.55 336.33 440.65 320.46 445.85 317.1 429.8 315.3 413.75 315.23 397.71 316.9 381.66 320.16 365.62 324.69 349.57 330.09 333.52 335.85 317.48" stroke-dasharray="0 9" transform="rotate(80.80000000000001, 400, 400)" opacity="0.61"></path><path d="M342.93 325.02Q356.61 322.62 370.28 322.12 383.95 323.56 397.62 326.83 411.29 331.64 424.97 337.58 438.64 344.16 452.31 350.8 446.02 364.69 440.31 378.57 435.54 392.45 432.04 406.33 430.01 420.21 429.59 434.09 425.64 450.99 407.33 446.25 394.2 439.24 381.08 433.56 367.95 429.71 354.82 428 341.69 428.59 328.56 431.42 326.43 418.12 325.49 404.82 325.81 391.52 327.37 378.22 330.06 364.92 333.72 351.62 338.1 338.32 342.93 325.02" stroke-dasharray="10 3" transform="rotate(84.84, 400, 400)" opacity="0.29"></path><path d="M349.86 333.55Q360.68 332.67 371.5 333.06 382.32 334.7 393.14 337.5 403.96 341.31 414.78 345.92 425.6 351.08 436.42 356.51 431.79 367.52 427.66 378.53 424.2 389.54 421.57 400.55 419.86 411.55 419.15 422.56 414.91 435.98 399.9 432.5 389.45 427.24 379 422.89 368.55 419.69 358.11 417.82 341.9 412.57 335.88 397.17 336.45 386.57 337.83 375.97 339.97 365.36 342.77 354.76 346.11 344.15 349.86 333.55" stroke-dasharray="6 0" transform="rotate(88.88, 400, 400)" opacity="0.52"></path><path d="M356.82 343.26Q372.89 344.33 388.95 348.17 405.01 354.31 421.08 361.99 415.27 378.36 411.1 394.73 408.96 411.1 409.05 427.47 393.42 418.99 377.8 412.21 362.17 407.97 346.55 406.78 346.47 390.9 348.3 375.02 351.86 359.14 356.82 343.26" stroke-dasharray="1 5" transform="rotate(92.92, 400, 400)" opacity="0.90"></path><path d="M363.99 354.25Q374.6 355.95 385.21 358.85 399.49 370.59 400.63 389.21 393.46 402.89 377.51 401.54 362.2 392.24 358.77 375.44 361.03 364.84 363.99 354.25" stroke-dasharray="4 4" transform="rotate(96.96, 400, 400)" opacity="0.86"></path></g></svg>