<svg xmlns="http://www.w3.org/2000/svg" viewBox="0 0 800 800"><defs><linearGradient x1="50%" y1="0%" x2="50%" y2="100%" id="a"><stop stop-color="hsl(162, 100%, 58%)" offset="0%"/><stop stop-color="hsl(270, 73%, 53%)" offset="100%"/></linearGradient></defs><g stroke-width="2" stroke="url(#a)" fill="none" stroke-linecap="round"><path d="M107.88 104.62q8.53 2.21 17.05 4.67 8.53 2.63 17.06 5.34 8.52 2.69 17.05 5.25 17.05 4.22 34.1 7.34 17.05.79 34.1.06 17.05-3.08 34.1-7.27 8.53-2.56 17.05-5.24 8.53-2.71 17.05-5.34 8.53-2.48 17.06-4.7 17.05-3.14 34.1-4.93 17.05.71 34.1 2.89 8.53 1.85 17.05 4.04 8.53 2.46 17.05 5.08 8.53 2.71 17.05 5.4 8.53 2.57 17.05 4.93 17.06 3.55 34.11 5.84 17.05-.19 34.1-1.87 8.52-1.65 17.05-3.67 8.53-2.33 17.05-4.88 8.53-2.68 17.05-5.38 8.53-2.65 17.05-5.13 17.05-3.93 34.11-6.68 17.05-.35 34.1.82 3.65 8.64 8.09 17.28 5.11 8.64 10.74 17.27 6.01 8.64 12.23 17.28 6.25 8.63 12.38 17.27 5.82 8.64 11.18 17.27 4.76 8.64 8.78 17.28 3.18 8.64 5.43 17.27.96 17.28-1.15 34.55-2.79 8.64-6.46 17.27-4.45 8.64-9.57 17.28-5.64 8.64-11.66 17.27-6.21 8.64-12.47 17.28-6.12 8.63-11.93 17.27-5.36 8.64-10.1 17.27-4.01 8.64-7.17 17.28-2.95 17.27-2.84 34.55 1.84 8.63 4.64 17.27 3.68 8.64 8.15 17.27 5.13 8.64 10.78 17.28 6.02 8.63 12.24 17.27 6.25 8.64 12.37 17.28 5.81 8.63 11.15 17.27 4.73 8.64 8.73 17.27 3.14 8.64 5.35 17.28.89 17.27-1.3 34.55-2.82 8.63-6.52 17.27-4.48 8.64-9.62 17.27-5.66 8.64-11.69 17.28-13.78 11.75-30.21 13.69-8.88.11-17.75 1.51-8.87 2.62-17.74 6.38-8.87 4.76-17.74 10.34-8.88 6.22-17.75 12.83-8.87 6.78-17.74 13.48-8.87 6.38-17.74 12.2-8.88 5.07-17.75 9.19-8.87 3.03-17.74 4.85-8.87.56-17.74-.17-8.88-2-17.75-5.18-8.87-4.25-17.74-9.43-8.87-5.92-17.74-12.35-8.88-6.73-17.75-13.5-8.87-6.57-17.74-12.71-8.87-5.49-17.75-10.12-8.87-3.61-17.74-6.07-8.87-1.23-17.74-1.17-8.87 1.34-17.75 3.92-8.87 3.71-17.74 8.43-8.87 5.56-17.74 11.75-8.87 6.6-17.75 13.38-8.87 6.71-17.74 13.1-8.87 5.86-17.74 10.96-8.87 4.16-17.75 7.23-8.87 1.88-17.74 2.49-8.87-.68-17.74-2.62-8.88-3.13-17.75-7.35-8.87-5.14-17.74-11.03-8.87-6.42-17.74-13.13-8.88-6.78-17.75-13.37-12.72-13.28-15.39-29.11 1.13-8.72 2.2-17.44.96-8.71 1.81-17.43 1.13-17.44 1.73-34.87-.35-17.44-1.27-34.87-.75-8.72-1.64-17.44-1.01-8.71-2.1-17.43-1.15-8.72-2.33-17.44-1.17-8.71-2.3-17.43-1.06-8.72-2.03-17.44-1.45-17.43-2.41-34.87-.02-17.43.54-34.87.59-8.71 1.35-17.43.89-8.72 1.9-17.44 1.09-8.71 2.24-17.43 1.18-8.72 2.35-17.44 1.13-8.71 2.19-17.43.97-8.72 1.81-17.44 1.12-17.43 1.7-34.87-.37-17.43-1.29-34.87-.76-8.71-1.66-17.43-1.01-8.72-2.1-17.44-1.15-8.71-2.33-17.43-1.17-8.72-2.3-17.44-1.06-8.71-2.02-17.43-.84-8.72-1.53-17.44" stroke-dasharray="9 6" opacity=".19"/><path d="M139.872 99.116q16.1 6.25 32.193 12.73 16.127 6 32.333 10.884 16.31 3.268 32.764 4.66 16.589-.542 33.297-2.76 16.796-3.476 33.627-7.58 16.837-4.044 33.62-7.33 16.69-1.95 33.244-2.143 16.429 1.731 32.726 5.329 16.188 5.133 32.306 11.274 16.083 6.489 32.2 12.62 16.19 5.133 32.486 8.73 16.43 1.732 32.984 1.538 16.689-1.95 33.472-5.235 16.837-4.044 33.668-8.148 16.796-3.476 33.505-5.704 16.588-.533 33.041.86 8.08 17.172 17.997 34.464 10.614 17.35 20.749 34.667 8.52 17.203 14.465 34.225 2.634 16.787 1.587 33.314-4.738 16.267-12.808 32.298-10.713 15.845-23.111 31.57-12.958 15.686-25.276 31.408-10.573 15.854-18.453 31.899-4.509 16.283-5.316 32.827 2.873 16.804 8.998 33.838 8.66 17.213 18.864 34.535 10.604 17.35 20.43 34.645 7.931 17.152 13.079 34.116 1.706 16.722-.319 33.18-5.645 16.203-14.483 32.18-11.261 15.806-23.91 31.514-17.168-1.754-34.664 1.11-17.782 6.935-35.777 16.872-18.101 11.443-36.193 22.746-17.953 9.489-35.688 15.755-17.438 2.047-34.548-.545-16.794-7.061-33.328-17.813-16.362-13.175-32.665-27.198-16.351-13.185-32.886-23.927-16.794-7.06-33.903-9.662-17.438 2.046-35.173 8.312-17.963 9.488-36.054 20.782-18.092 11.454-36.086 21.38-17.783 6.935-35.279 9.81-17.169-1.755-34.018-8.037-16.575-10.163-32.96-23.01-16.295-13.992-32.638-27.447 3.564-16.68 6.839-33.381 2.786-16.736 4.903-33.518 1.36-16.836 1.961-33.726-.117-16.94-.813-33.911-1.084-17.01-2.328-34.029-1.164-17.014-2.01-34.006-.325-16.955.037-33.862 1.11-16.853 2.987-33.643 2.587-16.75 5.722-33.46 3.494-16.685 7.128-33.36 3.514-16.684 6.679-33.393 2.626-16.747 4.554-33.532 1.16-16.85 1.562-33.754-.277-16.952-1.092-33.942-1.154-17.013-2.398-34.033-1.105-17-1.83-33.983" stroke-dasharray="5 9" opacity=".25"/><path d="M171.447 97.16q15.082 7.453 30.19 14.719 15.223 6.464 30.641 11.622 15.648 3.474 31.552 5.136 16.152-.081 32.523-1.635 16.501-2.546 33.063-5.518 16.53-2.744 32.953-4.664 16.222-.576 32.206.522 15.726 2.919 31.213 7.592 15.275 6.097 30.409 13.185 15.08 7.464 30.207 14.672 15.238 6.354 30.67 11.353 15.671 3.295 31.612 4.77 16.176-.248 32.555-1.933 16.512-2.615 33.085-5.595 16.522-2.684 32.918-4.488 16.2-.417 32.167.87 7.619 17.121 16.298 34.392 8.708 17.276 16.456 34.415 5.837 16.868 9.04 33.362.045 16.045-3.267 31.624-6.569 15.107-15.999 29.808-11.627 14.388-24.572 28.59-13.271 14.155-25.85 28.408-10.924 14.489-19.395 29.335-5.43 15.269-7.534 31.01 1.214 16.211 5.437 32.85 6.62 16.979 14.823 34.182 8.815 17.301 17.227 34.535 7.015 17.035 11.783 33.75 1.867 16.305.456 32.144-4.766 15.363-12.652 30.282-10.48 14.562-22.801 28.852-16.879-.134-34.328 3.682-17.902 7.003-36.086 16.057-18.285 9.706-36.457 18.61-17.852 6.718-35.245 10.137-16.827-.57-33.045-5.358-15.673-8.699-30.899-20.547-14.935-13.826-29.796-28.238-14.989-13.521-30.285-24.803-15.781-7.937-32.133-11.854-16.939.292-34.44 4.473-17.94 7.271-36.143 16.464-18.285 9.696-36.423 18.433-17.82 6.43-35.159 9.463-16.755-1.005-32.924-6.21-15.62-9.065-30.8-21.169-14.927-13.957-29.791-28.349 4.585-15.863 8.754-31.785 3.575-16.006 6.446-32.102 2.11-16.215 3.478-32.535.714-16.412.923-32.897-.12-16.52-.326-33.064-.058-16.522.23-32.995.843-16.394 2.357-32.683 2.268-16.192 5.29-32.277 3.713-15.987 7.981-31.895 4.635-15.856 9.437-31.678 4.723-15.843 9.15-31.729 3.922-15.957 7.21-32.004 2.534-16.144 4.318-32.405 1.07-16.362 1.537-32.81.04-16.508-.138-33.037-.177-16.539-.107-33.043" stroke-dasharray="3 1" opacity=".21"/><path d="M202.256 98.542q14.048 8.264 28.202 15.988 14.386 6.69 29.079 11.952 15.04 3.598 30.45 5.516 15.743.374 31.738-.477 16.169-1.611 32.374-3.44 16.14-1.474 32.09-2.068 15.657.723 30.983 3.033 14.96 4.02 29.563 9.652 14.325 6.973 28.449 14.885 14.027 8.31 28.1 16.457 14.225 7.442 28.694 13.7 14.804 4.744 29.961 7.794 15.524 1.39 31.361 1.324 16.06-1.154 32.258-2.902 16.203-1.767 32.284-3.019 15.866-.203 31.428 1.011 6.714 17.03 13.812 34.131 6.597 17.004 11.864 33.723 3.214 16.277 3.84 31.989-2.311 15.091-7.613 29.54-8.125 13.833-18.658 27.158-12.302 12.946-25.61 25.665-13.445 12.7-26.158 25.558-11.178 13.187-20.125 26.843-6.25 14.245-9.528 29.128-.294 15.514 2.138 31.624 4.68 16.593 10.937 33.513 7.027 17.097 13.966 34.175 5.971 16.87 10.204 33.355 1.865 15.988.914 31.372-3.931 14.733-10.807 28.843-9.496 13.549-21.075 26.65-16.819 1.113-34.306 5.387-17.982 6.58-36.219 14.345-18.222 7.696-36.16 14.071-17.422 3.971-34.15 4.705-15.93-2.97-31.058-9.687-14.4-10.098-28.239-22.817-13.497-14.303-26.918-28.968-13.615-13.755-27.673-25.447-14.701-8.7-30.173-13.813-16.284-1.329-33.33.892-17.672 5.134-35.766 12.233-18.26 7.872-36.418 15.274-17.796 5.711-35.008 8.704-16.475-.439-32.142-4.642-14.88-7.87-29.076-18.917-13.702-13.354-27.143-27.92 5.38-15.006 10.252-30.12 4.22-15.264 7.722-30.672 2.762-15.577 4.838-31.292 1.481-15.852 2.54-31.785.815-15.985 1.612-31.984.99-15.948 2.364-31.823 1.929-15.746 4.533-31.347 3.339-15.454 7.409-30.74 4.737-15.153 10.02-30.179 5.666-14.954 11.505-29.86 5.81-14.912 11.38-29.887 5.125-15.06 9.657-30.257 3.836-15.336 6.94-30.84 2.369-15.651 4.102-31.44 1.237-15.904 2.14-31.87.777-16.004 1.65-31.977" stroke-dasharray="2 1" opacity=".74"/><path d="M231.99 102.973q13.04 8.714 26.327 16.614 13.621 6.706 27.663 11.962 14.499 3.68 29.437 5.844 15.317.857 30.917.734 15.754-.651 31.522-1.35 15.634-.239 31.013.438 15.002 1.942 29.57 5.383 14.114 5.006 27.797 11.501 13.324 7.734 26.392 16.351 12.948 9.031 25.919 17.985 13.147 8.38 26.574 15.758 13.817 6.034 28.073 10.55 14.713 2.942 29.84 4.452 15.467.338 31.157-.092 15.779-.738 31.502-1.284 15.532.15 30.737 1.39 5.42 16.792 10.678 33.537 4.352 16.493 7.15 32.525.714 15.429-1.04 30.142-4.386 13.95-11.404 27.138-9.4 12.498-20.768 24.425-12.784 11.528-26.285 22.837-13.491 11.312-26.243 22.838-11.32 11.941-20.663 24.456-6.94 13.21-11.26 27.18-1.69 14.742-.908 30.19 2.847 16.046 7.24 32.54 5.266 16.748 10.687 33.54 4.835 16.622 8.38 32.881 1.665 15.704 1.015 30.738-3.243 14.281-9.137 27.795-8.41 12.784-18.992 24.94-16.824 1.902-34.337 6.145-17.924 5.697-35.985 11.833-17.86 5.475-35.253 9.306-16.657 1.326-32.421-.43-14.805-5.103-28.654-13.468-13.03-11.23-25.429-24.6-12.05-14.61-24.042-29.381-12.26-13.881-25.058-25.877-13.575-9.348-28.061-15.513-15.47-2.807-31.857-2.412-17.175 3.113-34.925 8.173-18.021 6.032-36.03 11.986-17.667 4.812-34.74 7.538-16.251-.076-31.568-3.41-14.337-6.685-27.78-16.483-12.694-12.352-24.885-26.441 5.98-14.134 11.387-28.445 4.725-14.508 8.748-29.22 3.332-14.911 6.04-30.004 2.208-15.238 4.08-30.572 1.706-15.373 3.453-30.744 1.977-15.304 4.378-30.486 2.947-15.023 6.548-29.857 4.312-14.628 9.325-29.053 5.656-14.238 11.838-28.314 6.568-13.974 13.33-27.892 6.76-13.918 13.339-27.89 6.194-14.082 11.86-28.318 5.032-14.419 9.36-29.032 3.63-14.825 6.596-29.843 2.41-15.179 4.397-30.48 1.757-15.369 3.456-30.754" stroke-dasharray="6 7" opacity=".74"/><path d="M260.378 110.119q12.123 8.84 24.616 16.675 12.952 6.588 26.422 11.768 13.994 3.753 28.463 6.189 14.872 1.37 30.017 1.997 15.262.31 30.486.721 15.014.954 29.703 2.82 14.243 3.078 27.98 7.535 13.203 5.902 25.914 13.147 12.283 8.376 24.275 17.573 11.833 9.628 23.673 19.237 12.003 9.169 24.312 17.502 12.722 7.184 25.954 13.012 13.76 4.391 28.027 7.403 14.706 1.82 29.735 2.735 15.23.394 30.49.712 15.133.656 29.991 2.063 3.828 16.358 7.063 32.498 2.073 15.712 2.496 30.807-1.606 14.358-5.475 27.884-6.186 12.674-14.612 24.512-10.4 11.123-22.387 21.662-13.066 10.143-26.616 20.096-13.423 10.011-26.113 20.291-11.386 10.76-21.023 22.154-7.528 12.18-12.776 25.198-2.921 13.875-3.652 28.545 1.144 15.37 3.76 31.282 3.555 16.258 7.451 32.63 3.602 16.275 6.331 32.228 1.303 15.43.75 30.165-2.713 13.95-7.746 27.049-7.331 12.252-16.78 23.714-16.813 2.168-34.208 5.89-17.654 4.427-35.234 8.678-17.198 3.188-33.7 4.51-15.61-1.129-30.17-5.111-13.467-6.926-25.914-16.653-11.574-12.1-22.506-25.915-10.603-14.738-21.19-29.49-10.918-13.884-22.457-26.079-12.393-9.845-25.814-16.924-14.502-4.11-30.06-5.381-16.477 1.226-33.635 4.332-17.579 4.22-35.24 8.665-17.403 3.773-34.26 6.031-16.032.047-31.083-2.603-13.966-5.597-26.856-14.09-11.947-11.087-23.14-24.22 6.398-13.277 12.19-26.788 5.121-13.747 9.57-27.752 3.828-14.224 7.123-28.654 2.879-14.572 5.508-29.247 2.54-14.696 5.188-29.364 2.907-14.562 6.24-28.978 3.883-14.203 8.398-28.183 5.178-13.727 11.026-27.217 6.445-13.26 13.41-26.34 7.327-12.935 14.874-25.8 7.58-12.843 15.024-25.747 7.13-13.008 13.804-26.194 6.098-13.388 11.561-27.02 4.784-13.872 8.915-27.994 3.545-14.327 6.615-28.84 2.728-14.627 5.292-29.326" stroke-dasharray="5 4" opacity=".19"/><path d="M287.206 119.6q11.32 8.693 23.122 16.31 12.366 6.369 25.31 11.452 13.512 3.824 27.507 6.572 14.383 1.914 28.986 3.313 14.669 1.253 29.231 2.743 14.3 2.073 28.192 5.05 13.388 4.097 26.201 9.472 12.235 6.66 23.919 14.542 11.224 8.903 22.108 18.563 10.704 10.084 21.374 20.218 10.822 9.797 21.947 18.919 11.561 8.155 23.652 15.134 12.67 5.694 25.914 10.11 13.778 3.233 27.987 5.507 14.513 1.6 29.173 2.87 14.641 1.34 29.089 3.085 2.018 15.66 3.171 30.929-.142 14.686-1.944 28.625-3.676 13.085-9.371 25.27-7.683 11.292-17.236 21.742-11.139 9.735-23.518 18.911-13.159 8.815-26.632 17.499-13.254 8.783-25.797 17.885-11.376 9.629-21.211 19.951-8.017 11.13-14.05 23.164-4.026 12.938-6.129 26.742-.406 14.567.559 29.741 1.91 15.61 4.293 31.434 2.338 15.803 4.138 31.364.77 15.097.13 29.549-2.395 13.672-6.722 26.474-6.343 11.895-14.655 22.903-16.67 1.925-33.71 4.694-17.088 2.878-33.897 5.114-16.194.89-31.529-.126-14.293-3.354-27.432-9.247-11.989-8.447-22.936-19.233-10.076-12.696-19.553-26.746-9.173-14.702-18.39-29.304-9.6-13.776-19.87-26.043-11.184-10.234-23.465-18.056-13.426-5.256-27.986-7.995-15.582-.49-31.952.792-16.903 2.468-34.017 5.378-16.977 2.632-33.499 4.251-15.78-.053-30.585-2.244-13.698-4.677-26.229-11.92-11.422-9.705-21.889-21.557 6.652-12.436 12.688-25.16 5.407-13.006 10.212-26.284 4.263-13.511 8.083-27.233 3.51-13.86 6.838-27.804 3.324-13.933 6.788-27.815 3.766-13.746 7.96-27.299 4.71-13.31 10.025-26.358 5.945-12.764 12.501-25.254 7.117-12.226 14.721-24.244 7.96-11.857 16.148-23.612 8.248-11.717 16.408-23.484 7.906-11.882 15.437-23.932 7.026-12.267 13.481-24.802 5.836-12.814 11.042-25.911 4.618-13.35 8.73-26.94 3.702-13.776 7.14-27.67" stroke-dasharray="9 0" opacity=".23"/><path d="M312.302 131.015q10.65 8.364 21.872 15.639 11.843 6.122 24.306 11.112 13.013 3.947 26.491 7.03 13.809 2.49 27.78 4.657 13.97 2.168 27.765 4.662 13.472 3.114 26.472 7.087 12.44 5.013 24.273 11.174 11.203 7.31 21.829 15.696 10.137 9.314 19.895 19.31 9.541 10.403 19.034 20.892 9.62 10.275 19.517 20.016 10.327 8.94 21.198 16.89 11.46 6.834 23.55 12.498 12.695 4.559 25.902 8.144 13.62 2.82 27.51 5.137 13.998 2.137 27.921 4.393.133 14.697-.76 28.831-2.227 13.427-6.022 26.011-5.473 11.67-12.685 22.416-8.871 9.842-19.245 18.887-11.628 8.358-24.185 16.228-13.121 7.567-26.387 15.044-12.998 7.633-25.313 15.622-11.289 8.552-21.248 17.82-8.388 10.102-15.098 21.117-4.961 11.945-8.272 24.79-1.809 13.641-2.363 27.969.362 14.82 1.292 29.935 1.057 15.194 1.846 30.233.115 14.687-.813 28.802-2.263 13.409-6.093 25.974-5.525 11.642-12.781 22.364-16.265 1.253-32.672 2.748-16.212 1.135-31.904 1.323-14.915-1.28-28.825-4.425-12.759-5.263-24.333-12.75-10.418-9.637-19.804-21.17-8.58-13.053-16.61-27.127-7.79-14.502-15.682-28.831-8.31-13.555-17.335-25.78-9.955-10.477-21.031-18.89-12.266-6.2-25.698-10.213-14.512-2.028-29.91-2.408-16.028.813-32.392 2.229-16.373 1.434-32.411 2.264-15.421-.336-29.961-2.31-13.466-3.952-25.765-10.092-11.11-8.35-21.102-18.756 6.756-11.65 12.935-23.599 5.615-12.252 10.715-24.792 4.637-12.778 8.94-25.736 4.079-13.09 8.056-26.224 4.03-13.105 8.235-26.115 4.528-12.848 9.465-25.465 5.439-12.347 11.446-24.4 6.566-11.74 13.705-23.172 7.667-11.148 15.77-22.073 8.45-10.727 17.13-21.33 8.764-10.57 17.487-21.15 8.53-10.683 16.743-21.538 7.804-11.085 15.101-22.433 6.742-11.645 12.917-23.608 5.597-12.261 10.675-24.802 4.637-12.778 8.927-25.755" stroke-dasharray="9 10" opacity=".76"/><path d="M335.583 143.975q10.085 7.907 20.812 14.8 11.368 5.879 23.34 10.802 12.497 4.096 25.389 7.566 13.148 3.065 26.393 5.977 13.164 3.04 26.083 6.468 12.528 4.045 24.549 8.892 11.416 5.803 22.196 12.611 10.139 7.823 19.678 16.592 9.021 9.588 17.658 19.785 8.384 10.594 16.694 21.307 8.396 10.577 17.048 20.749 9.053 9.538 18.62 18.265 10.176 7.763 20.988 14.52 11.459 5.735 23.506 10.54 12.563 4.009 25.503 7.403 13.17 3.03 26.41 5.952-1.743 13.452-4.55 26.231-4.091 11.967-9.591 23.054-6.957 10.154-15.358 19.393-9.745 8.39-20.679 16.04-11.883 7.036-24.442 13.645-12.923 6.38-25.876 12.751-12.653 6.55-24.688 13.491-11.123 7.518-21.118 15.761-8.664 9.074-15.9 19.051-5.764 10.908-10.11 22.714-3.048 12.638-4.968 25.978-1.041 13.896-1.499 28.161-.193 14.445-.448 28.839-.652 14.142-2.005 27.84-2.34 13.088-5.874 25.407-4.902 11.453-11.242 21.997-15.57.22-31.016.245-15.009-.667-29.316-2.442-13.373-3.254-25.64-8.234-11.09-6.862-20.997-15.592-8.801-10.478-16.64-22.478-7.092-13.161-13.728-27.063-6.47-14.163-13.084-28.098-7.069-13.217-14.851-25.288-8.742-10.572-18.58-19.411-11.03-6.955-23.243-12.042-13.305-3.341-27.56-5.2-14.98-.71-30.406-.719-15.57.22-30.974.178-14.92-.79-29.11-2.75-13.227-3.481-25.349-8.712-10.928-7.116-20.667-16.093 6.759-10.87 13.002-22.067 5.754-11.507 11.084-23.281 4.97-11.99 9.693-24.149 4.579-12.25 9.14-24.51 4.647-12.207 9.513-24.275 5.179-11.87 10.755-23.49 6.049-11.32 12.605-22.318 7.08-10.667 14.667-21.014 8.06-10.047 16.535-19.832 8.796-9.582 17.81-19.025 9.126-9.373 18.243-18.752 8.981-9.464 17.726-19.078 8.399-9.833 16.375-19.934 7.494-10.405 14.472-21.137 6.464-11.057 12.411-22.44 5.5-11.668 10.611-23.58" stroke-dasharray="6 5" opacity=".43"/><path d="M356.992 158.095q9.628 7.399 19.908 13.912 10.909 5.659 22.37 10.569 11.91 4.298 24.135 8.17 12.397 3.637 24.805 7.259 12.24 3.833 24.181 8.091 11.502 4.854 22.458 10.449 10.34 6.432 20.021 13.758 9.042 8.196 17.472 17.221 7.915 9.726 15.427 20 7.239 10.644 14.377 21.425 7.186 10.716 14.585 21.143 7.755 9.943 15.996 19.226 8.808 8.496 18.264 16.128 10.108 6.746 20.851 12.631 11.324 5.096 23.122 9.547 12.16 3.96 24.527 7.638-3.477 11.993-7.994 23.222-5.676 10.375-12.568 19.854-8.107 8.585-17.381 16.324-10.322 6.954-21.547 13.244-11.917 5.78-24.31 11.21-12.593 5.283-25.146 10.595-12.231 5.55-23.912 11.515-10.895 6.534-20.823 13.778-8.832 8.051-16.465 16.985-6.417 9.83-11.634 20.543-4.097 11.537-7.218 23.805-2.31 12.853-4.024 26.145-1.375 13.54-2.67 27.14-1.464 13.476-3.371 26.626-2.576 12.657-6.027 24.682-4.484 11.253-10.128 21.651-14.525-1.033-28.678-2.573-13.518-2.401-26.176-5.971-11.638-4.955-22.145-11.447-9.338-8.08-17.544-17.697-7.182-11.024-13.503-23.203-5.68-13.048-10.987-26.603-5.212-13.684-10.62-27.103-5.876-12.782-12.475-24.581-7.524-10.544-16.121-19.63-9.748-7.523-20.657-13.468-12.026-4.446-25.01-7.572-13.767-2.064-28.08-3.386-14.59-.945-29.17-1.905-14.276-1.37-27.99-3.507-12.907-3.231-24.83-7.8-10.815-6.073-20.467-13.726 6.678-10.134 12.921-20.588 5.849-10.744 11.367-21.732 5.253-11.183 10.338-22.476 5.02-11.356 10.07-22.687 5.19-11.23 10.603-22.295 5.72-10.84 11.81-21.406 6.525-10.247 13.503-20.147 7.443-9.57 15.353-18.797 8.321-8.925 17.02-17.57 8.99-8.433 18.197-16.705 9.321-8.176 18.665-16.347 9.271-8.225 18.357-16.586 8.82-8.557 17.294-17.369 8.072-9.108 15.694-18.534 7.17-9.772 13.864-19.894 6.259-10.442 12.116-21.18" stroke-dasharray="4 0" opacity=".95"/><path d="M376.517 173.025q9.23 6.898 19.084 13.064 10.417 5.504 21.313 10.444 11.247 4.53 22.713 8.8 11.545 4.178 23.005 8.456 11.24 4.537 22.117 9.5 10.398 5.527 20.231 11.716 9.212 6.92 17.769 14.61 7.921 8.435 15.247 17.572 6.813 9.738 13.211 19.963 6.127 10.545 12.11 21.258 5.997 10.698 12.162 21.197 6.463 10.135 13.367 19.767 7.435 9.007 15.473 17.305 8.68 7.545 18.008 14.328 9.944 6.06 20.445 11.465 14.098 12.287 11.292 29.255-6.939 8.709-14.877 16.555-8.927 7.018-18.746 13.263-10.618 5.579-21.898 10.594-11.761 4.592-23.826 8.94-12.163 4.263-24.214 8.61-11.745 4.619-22.996 9.646-10.594 5.598-20.39 11.877-8.882 7.042-16.789 14.928-6.9 8.742-12.806 18.318-4.974 10.382-9.09 21.481-3.406 11.717-6.256 23.907-2.455 12.512-4.741 25.181-2.302 12.657-4.818 25.117-2.941 12.112-6.462 23.718-4.282 10.97-9.432 21.203-13.152-2.382-25.727-5.442-11.792-3.982-22.637-9.075-9.782-6.343-18.455-13.987-7.566-8.947-14.087-19.106-5.614-11.239-10.49-23.346-4.351-12.724-8.417-25.783-4.046-13.082-8.319-25.898-4.759-12.244-10.225-23.658-6.347-10.379-13.711-19.561-8.46-7.896-18.035-14.482-10.65-5.322-22.273-9.502-12.446-3.212-25.507-5.701-13.45-2.032-27.037-3.904-13.457-2.025-26.538-4.49-12.465-3.19-24.113-7.325-12.225-13.254-7.553-30.932 5.9-9.974 11.552-20.147 5.476-10.323 10.868-20.716 5.385-10.4 10.844-20.75 5.613-10.206 11.455-20.217 6.138-9.759 12.62-19.226 6.868-9.15 14.141-17.943 7.677-8.45 15.75-16.561 8.453-7.789 17.227-15.305 9.046-7.297 18.292-14.41 9.375-7.005 18.788-13.977 9.375-7.004 18.635-14.119 9.055-7.276 17.836-14.786 8.461-7.782 16.557-15.874 7.698-8.444 14.98-17.23 6.884-9.124 13.373-18.585" stroke-dasharray="6 1" opacity=".16"/><path d="M394.199 188.466q8.845 6.448 18.244 12.331 9.875 5.398 20.114 10.425 10.498 4.776 21.109 9.425 10.589 4.67 21.017 9.503 10.14 5.127 19.883 10.66 9.237 6.048 17.908 12.674 8.055 7.255 15.48 15.166 6.807 8.525 13.042 17.636 5.73 9.624 11.053 19.663 5.044 10.325 9.92 20.82 4.855 10.518 9.836 20.92 5.219 10.146 10.802 19.921 6.059 9.29 12.664 18.022 7.214 8.11 15.059 15.58 8.467 6.832 17.523 13.066 11.473 12.623 6.32 27.375-7.858 7.014-16.509 13.25-9.408 5.495-19.487 10.345-10.65 4.277-21.764 8.098-11.435 3.52-23.035 6.865-11.614 3.331-23.107 6.795-11.193 3.744-21.957 7.908-10.215 4.704-19.786 10.051-8.823 6.069-16.867 12.9-7.23 7.645-13.653 16.066-5.646 9.185-10.584 19.076-4.31 10.494-8.113 21.485-3.41 11.375-6.599 22.983-3.082 11.697-6.242 23.318-3.382 11.418-7.128 22.465-12.41 13.713-31.353 12.42-9.903-5.313-18.825-11.625-7.886-7.37-14.729-15.802-5.841-9.454-10.765-19.844-4.147-11.181-7.685-22.984-3.125-12.224-6.061-24.641-2.97-12.382-6.208-24.492-3.72-11.617-8.105-22.556-5.218-10.09-11.382-19.215-7.192-8.076-15.428-15.088-9.252-5.977-19.455-10.983-11.037-4.156-22.732-7.64-12.177-2.993-24.614-5.722-12.472-2.692-24.748-5.584-11.863-3.314-23.117-7.249-12.053-11.918-7.508-28.064 5.907-9.165 11.657-18.485 5.657-9.425 11.278-18.87 5.657-9.412 11.428-18.724 5.936-9.138 12.085-18.066 6.436-8.662 13.164-17.022 7.07-8.025 14.498-15.713 7.778-7.331 15.89-14.334 8.442-6.694 17.162-13.1 8.956-6.177 18.111-12.171 9.27-5.868 18.597-11.68 9.327-5.826 18.575-11.715 9.106-6.029 18.019-12.261 8.663-6.463 17.026-13.22 8.049-7.08 15.74-14.495 7.343-7.758 14.342-15.867" stroke-dasharray="8 10" opacity=".82"/><path d="M410.053 204.168q8.436 6.074 17.322 11.737 9.253 5.351 18.752 10.484 9.635 5 19.292 9.993 9.537 5.085 18.865 10.37 8.982 5.59 17.54 11.545 8.054 6.412 15.54 13.314 6.894 7.44 13.196 15.403 5.704 8.479 10.876 17.443 4.693 9.375 8.997 19.108 4.01 9.991 7.843 20.128 3.78 10.197 7.62 20.327 4.025 9.979 8.359 19.685 4.723 9.348 9.932 18.28 5.75 8.44 12.09 16.37 6.938 7.399 14.469 14.261 8.809 12.756 1.731 25.233-8.431 5.381-17.466 10.081-9.578 4.086-19.64 7.625-10.446 3.091-21.204 5.845-10.944 2.543-21.974 4.99-10.99 2.49-21.835 5.147-10.586 2.947-20.8 6.3-9.777 3.862-19.023 8.322-8.67 5.112-16.718 10.927-7.397 6.55-14.158 13.818-6.124 7.972-11.672 16.61-5.024 9.23-9.604 18.962-4.21 10.15-8.166 20.585-3.805 10.608-7.57 21.26-3.843 10.548-7.88 20.894-11.513 12.37-27.52 9.179-7.938-6.341-14.919-13.517-6.022-8.038-11.115-16.899-4.217-9.635-7.655-19.96-2.81-10.883-5.133-22.181-2.03-11.572-3.957-23.236-2.016-11.585-4.316-22.918-2.765-10.922-6.151-21.28-4.158-9.688-9.176-18.614-5.961-8.092-12.881-15.335-7.864-6.407-16.626-12.005-9.578-4.89-19.838-9.176-10.805-3.803-21.963-7.294-11.33-3.338-22.63-6.689-11.091-3.55-21.77-7.466-11.697-10.933-7.26-25.64 5.884-8.348 11.682-16.78 5.765-8.483 11.543-16.952 5.852-8.386 11.83-16.63 6.128-8.057 12.47-15.889 6.594-7.547 13.446-14.802 7.15-6.919 14.586-13.501 7.74-6.252 15.773-12.175 8.297-5.623 16.84-10.97 8.74-5.107 17.654-10.034 9.034-4.792 18.14-9.502 9.12-4.694 18.191-9.427 8.994-4.837 17.848-9.832 8.675-5.196 17.125-10.647 8.19-5.729 16.11-11.779 7.628-6.38 14.958-13.096" stroke-dasharray="0 2" opacity=".78"/><path d="M424.126 219.939q7.962 5.765 16.241 11.288 8.52 5.325 17.18 10.555 8.684 5.212 17.296 10.479 8.424 5.398 16.584 11.012 7.788 5.9 15.138 12.133 6.853 6.604 13.172 13.629 5.756 7.457 10.956 15.34 4.647 8.295 8.807 16.975 3.709 9.027 7.052 18.334 3.044 9.524 5.91 19.196 2.78 9.74 5.57 19.458 2.923 9.63 6.076 19.082 3.47 9.21 7.347 18.095 4.343 8.54 9.202 16.685 5.415 7.719 11.386 14.998 6.198 12.65-2.336 22.886-8.667 3.848-17.769 7.148-9.477 2.793-19.276 5.165-10.055 2.04-20.286 3.848-10.335 1.674-20.69 3.339-10.286 1.737-20.426 3.666-9.909 2.23-19.532 4.832-9.265 3.085-18.115 6.695-8.4 4.198-16.313 9.03-7.414 5.484-14.337 11.624-6.428 6.768-12.382 14.156-5.534 7.936-10.684 16.37-4.828 8.857-9.409 18.052-4.402 9.412-8.7 18.958-4.28 9.57-8.634 19.045-10.69 10.906-23.722 6.155-5.983-7.03-11.107-14.733-4.27-8.345-7.737-17.304-2.738-9.52-4.856-19.514-1.619-10.377-2.888-21.022-1.079-10.791-2.118-21.613-1.175-10.718-2.65-21.205-1.905-10.158-4.402-19.874-3.174-9.185-7.118-17.78-4.793-7.943-10.443-15.229-6.515-6.623-13.855-12.613-8.118-5.394-16.91-10.27-9.356-4.445-19.148-8.555-10.062-3.903-20.244-7.715-10.14-3.856-20.058-7.869-11.072-10.249-6.692-23.6 5.83-7.483 11.625-15.013 5.806-7.514 11.663-14.979 5.94-7.34 12.008-14.512 6.22-6.975 12.629-13.704 6.615-6.459 13.462-12.616 7.098-5.846 14.432-11.368 7.577-5.205 15.391-10.1 8.04-4.602 16.28-8.942 8.417-4.11 16.981-8.044 8.667-3.784 17.412-7.466l17.54-7.299q8.714-3.72 17.338-7.56 8.516-3.998 16.86-8.203 8.154-4.45 16.102-9.172 7.723-5.014 15.197-10.354" stroke-dasharray="9 3" opacity=".69"/><path d="M436.452 235.622q14.932 10.943 30.34 21.572 15.148 10.8 29.38 22.206 12.723 12.39 23.566 26.032 8.816 14.982 15.678 31.254 5.244 17.341 9.395 35.404 3.734 18.338 7.743 36.494 4.968 17.523 11.456 34.043 8.39 15.263 18.824 29.176-16.212 6.464-33.702 10.991-18.469 3.029-37.54 5.162-19.215 1.916-38.113 4.293-18.168 3.502-35.229 8.68-15.69 7.234-29.891 16.744-12.713 11.762-24.067 25.564-10.287 15.434-19.864 31.945-9.293 16.922-18.777 33.574-10.576-13.22-18.111-28.46-4.707-17.108-7.136-35.721-.996-19.547-1.564-39.388-1.22-19.412-4.057-37.755-5.252-16.736-13.422-31.557-11.207-12.816-25.221-23.766-16.256-9.481-33.906-18.042-18.008-8.325-35.318-17.098 11.553-13.046 23.027-26.231 11.61-12.977 23.597-25.386 12.542-11.566 25.79-22.065 14.02-9.33 28.821-17.475 15.513-7.068 31.593-13.277 16.471-5.617 33.103-10.992 16.554-5.491 32.805-11.441 15.733-6.735 30.8-14.48" stroke-dasharray="10 7" opacity=".52"/><path d="M447.017 251.115q13.391 10.647 26.84 21.274 12.908 10.93 24.75 22.452 10.372 12.36 18.998 25.692 6.793 14.377 11.855 29.717 3.622 16.164 6.21 32.899 2.114 17.013 4.316 33.977 2.858 16.583 6.897 32.51 5.595 15.042 12.97 29.09-15.897 3.747-32.615 6.039-17.302 1.255-34.913 1.962-17.602.724-34.894 1.996-16.69 2.322-32.558 6.122-14.872 5.567-28.645 13.087-12.673 9.47-24.32 20.762-10.777 12.834-20.917 26.8-18.091 15.153-30.76.574-2.114-16.382-2.524-33.712.543-17.88 1.23-35.828-.023-17.56-1.523-34.277-3.595-15.547-9.677-29.682-8.727-12.656-19.975-23.88-13.38-10.034-28.287-19.196-15.687-8.734-31.3-17.498 11.162-11.397 22.359-22.734 11.39-10.974 23.14-21.326 12.233-9.499 25.03-17.995 13.398-7.411 27.408-13.756 14.56-5.369 29.575-9.927 15.345-3.975 30.853-7.64 15.522-3.661 30.872-7.627 15.03-4.532 29.605-9.875" stroke-dasharray="6 5" opacity=".25"/><path d="M455.782 266.349q11.632 10.345 22.988 20.832 10.62 10.824 20.132 22.185 8.107 12.015 14.665 24.776 4.945 13.515 8.403 27.745 2.18 14.825 3.433 30.1.734 15.51 1.408 31.06 1.078 15.348 2.99 30.31 3.11 14.384 7.68 28.088-15.074 1.49-30.624 1.977-15.858-.164-31.832-.572-15.893-.236-31.51.107-15.161 1.31-29.726 3.875-13.858 4.056-26.94 9.748-12.313 7.34-23.871 16.25-10.894 10.31-21.262 21.73-16.748 11.757-25.176-3.128.007-15.231 1.171-31.01 1.73-16.058 3.381-32.068.925-15.677.544-30.724-2.148-14.22-6.379-27.443-6.476-12.168-15.126-23.296-10.596-10.216-22.743-19.686-13.159-8.99-26.728-17.797 10.684-9.701 21.476-19.177 11.01-9.014 22.32-17.373 11.704-7.55 23.84-14.189 12.595-5.67 25.64-10.393 13.45-3.84 27.262-6.946 14.072-2.553 28.303-4.772 14.287-2.101 28.5-4.357 14.026-2.63 27.781-5.852" stroke-dasharray="10 5" opacity=".9"/><path d="M462.699 281.258q9.697 9.966 18.882 20.133 8.356 10.49 15.637 21.388 6.017 11.403 10.684 23.333 3.316 12.456 5.365 25.408.955 13.367 1.095 27.064-.383 13.9-.933 27.866-.354 13.89-.181 27.562 1.015 13.355 3.129 26.281-13.84-.256-27.933-1.132-14.215-1.215-28.453-2.463-14.126-.96-28.02-1.356-13.577.447-26.743 1.946-12.677 2.726-24.846 6.778-11.633 5.399-22.763 12.115-10.657 7.927-20.898 16.894-15.305 8.56-20.23-5.984 1.588-13.78 3.907-27.836 2.56-14.149 4.904-28.224 1.638-13.79 2.168-27.146-.945-12.792-3.582-24.913-4.464-11.408-10.756-22.112-7.994-10.03-17.44-19.493-11.14-17.401-1.47-33.413 10.441-7.134 21.13-13.635 10.978-5.756 22.277-10.691 11.622-4.107 23.555-7.39 12.237-2.532 24.728-4.413 12.695-1.358 25.528-2.363 12.898-.837 25.79-1.692 12.81-1.06 25.469-2.512" stroke-dasharray="1 1" opacity=".23"/><path d="M467.652 295.801q7.657 9.432 14.697 19.065 6.208 9.893 11.42 20.084 4.137 10.537 7.147 21.425 1.9 11.222 2.761 22.778-.03 11.822-.763 23.874-1.23 12.206-2.691 24.474-1.44 12.272-2.594 24.454-6.728 17.153-25.267 20.48-12.474-1.922-24.912-3.729-12.334-1.472-24.495-2.423-11.954-.25-23.638.368-11.386 1.573-22.434 4.204-10.727 3.693-21.121 8.455-10.083 5.765-19.877 12.425-13.511-7.243-10.23-32.382 3.083-12.239 5.85-24.389 2.135-11.954 3.347-23.61.045-11.303-1.267-22.185-2.74-10.426-6.965-20.402-5.643-9.523-12.56-18.661-7.7-16.204 2.138-29.486 9.69-5.381 19.575-10.163 10.085-4.143 20.38-7.576 10.52-2.739 21.253-4.8 10.919-1.428 22.022-2.295 11.246-.409 22.59-.471 11.421.154 22.863.375 11.415.167 22.771.111" stroke-dasharray="10 0" opacity=".08"/><path d="M470.53 309.902q5.627 8.723 10.622 17.595 4.225 9.052 7.624 18.3 2.5 9.448 4.107 19.117.731 9.875.655 19.94-.788 10.233-2.17 20.605-1.809 10.473-3.88 21.007-2.163 10.546-4.226 21.078-7.782 14.518-24.464 16.225-10.684-2.315-21.31-4.427-10.56-1.79-21.006-3.133-10.308-.76-20.47-.854-9.978.642-19.78 2.075-9.598 2.258-19.004 5.334-9.23 3.867-18.276 8.471-10.577-8.277-5.646-30.066 3.303-10.372 6.274-20.666 2.419-10.154 4.095-20.143.781-9.78.552-19.31-1.34-9.28-3.81-18.293-3.598-8.739-8.248-17.24-4.51-14.626 5.262-25.226 8.79-3.773 17.708-7.042 9.039-2.713 18.218-4.872 9.303-1.593 18.743-2.643 9.552-.532 19.222-.609 9.753.325 19.578.951 9.892.868 19.801 1.855 9.928 1.023 19.828 1.97" stroke-dasharray="1 3" opacity=".13"/><path d="M471.202 323.482q6.858 15.695 11.216 31.785 1.646 16.54.705 33.499-3.094 17.297-7.638 34.839-5.106 17.633-9.84 35.196-17.838-5.124-35.598-9.764-17.572-3.475-34.86-5.204-16.94.424-33.51 3.2-20.859.186-18.609-21.948 6.23-17.076 10.702-33.877 1.845-16.375.534-32.23-4.61-15.33-12.281-30.164 15.306-5.883 30.862-10.226 15.822-2.634 31.933-3.551 16.355.653 32.923 2.559 16.707 2.764 33.461 5.886" stroke-dasharray="0 9" opacity=".61"/><path d="M469.543 336.418q3.621 13.408 5.348 26.978-.204 13.744-2.232 27.653-3.56 14.047-8.246 28.206-5.324 14.206-10.708 28.418-14.4-5.015-28.736-9.454-14.253-3.502-28.392-5.74-14.006-.773-27.868.057-17.186-2.414-14.112-21.076 5.8-13.707 10.277-27.285 2.654-13.423 3.176-26.654-1.768-13.023-5.768-25.846 13.055-3.317 26.216-5.45 13.275-.877 26.662-.52 13.488 1.483 27.063 3.932 13.64 3.167 27.32 6.78" stroke-dasharray="10 3" opacity=".29"/><path d="M465.457 348.57q1.092 10.801.913 21.627-1.428 10.85-4.016 21.723-3.598 10.892-7.995 21.8-4.948 10.919-10.165 21.843-11.099-4.414-22.187-8.328-11.076-3.244-22.135-5.658-11.032-1.495-22.053-1.99-13.5-3.977-10.315-19.052 5.055-10.55 9.2-21.084 2.995-10.51 4.66-20.985 4.933-16.31 20.212-22.63 10.61.364 21.234 1.536 10.65 1.932 21.303 4.525 10.673 3.132 21.344 6.674" stroke-dasharray="6 0" opacity=".52"/><path d="M458.866 359.766q-1.887 15.995-6.54 31.839-6.95 15.726-15.44 31.384-16.052-6.636-32.188-11.635-16.24-2.971-32.593-3.715 9.265-15.178 16.832-30.432 5.03-15.394 7.015-30.933 15.863.73 31.63 3.366 15.677 4.364 31.284 10.126" stroke-dasharray="1 5" opacity=".9"/><path d="M449.776 369.8q-2.973 10.325-7.137 20.505-13.384 12.753-32.005 11.628-12.71-8.775-9.437-24.444 11.086-14.07 28.178-15.44 10.248 3.529 20.401 7.75" stroke-dasharray="4 4" opacity=".86"/></g></svg>